<svg width="36" height="36" viewBox="0 0 36 36" fill="none" xmlns="http://www.w3.org/2000/svg">
<g clip-path="url(#clip0_340_8424)">
<path d="M8.35038 30.2823L7.59872 30.419C7.18531 30.4942 6.77571 30.6576 6.6885 30.7821C6.56709 30.9555 6.49282 30.9699 6.37145 30.8436C6.28428 30.7529 6.13573 30.71 6.04133 30.7482C5.94693 30.7865 5.83437 30.7024 5.79121 30.5613C5.69085 30.2334 5.04593 29.8897 5.04593 30.1642C5.04593 30.2796 4.94592 30.3213 4.77936 30.2753C4.38761 30.1671 4.44827 30.0432 5.075 29.6713L5.63719 29.3376L5.2416 29.2256C5.02403 29.164 4.47739 29.1193 4.02685 29.1263C3.57632 29.1333 3.09651 29.0708 2.96061 28.9874C2.74709 28.8564 2.77237 28.8352 3.14669 28.8315C3.38493 28.8294 3.57985 28.7691 3.57985 28.698C3.57985 28.6269 3.61627 28.4686 3.66075 28.3462C3.70523 28.2238 3.67525 28.1236 3.59411 28.1236C3.51296 28.1236 3.44657 28.2186 3.44657 28.3347C3.44657 28.6015 3.38135 28.5993 2.97654 28.3193C2.79649 28.1947 2.68792 28.0266 2.73526 27.9457C2.78538 27.8601 2.75708 27.8406 2.66748 27.8991C2.58285 27.9543 2.5136 27.9324 2.5136 27.8505C2.5136 27.7685 2.38631 27.7014 2.23073 27.7014C1.99999 27.7014 1.97713 27.6642 2.1067 27.4993C2.22622 27.3473 2.22822 27.2236 2.11481 26.9998C2.0319 26.8363 1.98276 26.5449 2.0056 26.3523L2.04715 26.0022L2.48854 26.4296C2.95052 26.877 3.57988 27.0076 3.57988 26.656C3.57988 26.4041 3.21863 26.0127 2.98614 26.0127C2.79761 26.0127 2.63163 25.3741 2.74154 25.0717C2.77847 24.97 2.88872 24.8869 2.98651 24.8869C3.0843 24.8869 3.20285 24.821 3.24997 24.7405C3.30599 24.6448 3.20494 24.6262 2.95797 24.6868C2.59249 24.7765 2.58889 24.7722 2.84684 24.5516C3.09709 24.3377 3.09913 24.3147 2.88013 24.1761C2.58539 23.9896 2.57842 23.761 2.86749 23.761C3.07274 23.761 3.07274 23.7431 2.86749 23.5037C2.74617 23.3621 2.64691 23.2038 2.64691 23.1518C2.64691 22.9816 3.18488 23.0528 3.59621 23.2774C3.85038 23.4162 4.14321 23.464 4.38928 23.4069C4.77768 23.3169 4.93751 23.0574 4.6046 23.0574C4.50847 23.0574 4.30106 22.9307 4.1437 22.7759C3.98633 22.6211 3.79509 22.4945 3.71873 22.4945C3.64236 22.4945 3.57987 22.4311 3.57987 22.3537C3.57987 22.2763 3.49641 22.213 3.3944 22.213C3.29239 22.213 3.1713 22.0547 3.1253 21.8612C3.07931 21.6677 2.95285 21.5094 2.84429 21.5094C2.73573 21.5094 2.64691 21.3886 2.64691 21.2411C2.64691 21.0437 2.71611 20.9919 2.9087 21.0451C3.05802 21.0863 3.26987 21.0124 3.40185 20.8731C3.62149 20.6411 3.61864 20.6163 3.34565 20.3829C3.18749 20.2477 3.09878 20.094 3.14852 20.0415C3.19824 19.989 3.17497 19.902 3.09674 19.8481C3.01852 19.7943 2.91289 19.5708 2.86201 19.3514C2.75942 18.9091 2.79928 18.9184 3.54655 19.5107C3.78479 19.6995 3.97971 19.7909 3.97971 19.7137C3.97971 19.6366 3.84477 19.4678 3.67983 19.3387C3.5149 19.2096 3.45492 19.1423 3.54655 19.1891C3.63818 19.236 3.71124 19.2231 3.70891 19.1604C3.70136 18.957 3.35488 18.554 3.18755 18.554C3.09789 18.554 3.05949 18.4749 3.1022 18.3781C3.14492 18.2814 3.21497 18.0991 3.25788 17.9731C3.35622 17.6843 3.95592 17.3723 4.3335 17.4135C4.49144 17.4307 4.65991 17.3778 4.70789 17.2958C4.75589 17.2138 4.69807 17.1468 4.57947 17.1468C4.46087 17.1468 4.39832 17.0878 4.44049 17.0157C4.48266 16.9437 4.45621 16.845 4.38172 16.7963C4.30722 16.7477 4.24627 16.5496 4.24627 16.3561C4.24627 16.1626 4.1963 16.0369 4.13521 16.0768C4.07412 16.1167 4.02414 16.0613 4.02414 15.9537C4.02414 15.8208 4.20612 15.8904 4.59238 16.171C5.17931 16.5974 5.44579 16.6838 5.44579 16.4475C5.44579 16.3726 5.37082 16.3413 5.27919 16.378C5.16778 16.4226 5.10459 16.2797 5.08843 15.9466C5.07241 15.6167 4.95988 15.3591 4.75523 15.1839C4.35621 14.8423 4.51426 14.6724 4.98751 14.9342C5.26844 15.0897 5.43996 15.1013 5.73234 14.9848C5.94126 14.9015 6.11219 14.7794 6.11219 14.7135C6.11219 14.5082 5.78483 14.2363 5.6112 14.2974C5.52023 14.3294 5.44579 14.2652 5.44579 14.1546C5.44579 14.0441 5.32584 13.839 5.17923 13.6989C4.81645 13.3522 4.83378 13.0363 5.21258 13.092C5.45531 13.1276 5.52072 13.0598 5.5558 12.7361C5.59288 12.3943 5.56119 12.349 5.33763 12.4239C5.11535 12.4984 5.0667 12.4317 5.01332 11.9794C4.97877 11.6867 4.95785 11.4358 4.96678 11.4218C4.97575 11.4078 5.29194 11.7027 5.66948 12.077C6.47692 12.8775 6.82786 13.0337 7.12174 12.7234C7.27832 12.5581 7.28657 12.5028 7.15463 12.5031C6.79389 12.5041 5.84564 11.8666 5.84564 11.6234C5.84564 11.3173 6.18506 11.3058 6.82896 11.5898C7.28791 11.7923 7.31171 11.7892 7.31171 11.5278C7.31171 11.3765 7.25174 11.2136 7.17843 11.1657C7.10513 11.1179 7.04515 10.9611 7.04515 10.8173C7.04515 10.4712 6.76652 10.3784 6.48993 10.6323C6.25513 10.8478 5.57907 10.9849 5.57907 10.8169C5.57907 10.7625 5.89394 10.5337 6.27879 10.3086L6.97851 9.89919L6.33434 9.85584L5.69016 9.81249L6.04678 9.46352C6.25803 9.25679 6.37192 9.02796 6.32619 8.90211C6.25845 8.71572 6.28508 8.71638 6.54344 8.90743C6.7054 9.02721 6.91338 9.12521 7.00563 9.12521C7.28614 9.12521 7.35411 8.46997 7.12409 7.98313C6.85752 7.41892 6.91078 7.35471 7.3457 7.71594C7.67937 7.99307 8.11139 8.09722 8.11139 7.90053C8.11139 7.84616 7.94032 7.60868 7.73125 7.37279C7.52217 7.1369 7.24756 6.65893 7.12101 6.31062L6.89091 5.67734L7.17945 6.00113C7.42189 6.27319 7.50342 6.29642 7.68973 6.1465C7.81169 6.04837 7.92871 5.95834 7.94978 5.94644C7.97083 5.93454 7.91668 5.75935 7.82943 5.55713C7.68843 5.23036 7.71012 5.14793 8.02437 4.81611C8.40556 4.41362 8.45311 4.26535 8.24467 4.12932C8.17137 4.08148 8.11139 3.97902 8.11139 3.90162C8.11139 3.82422 8.16722 3.79732 8.23546 3.84185C8.30369 3.88638 8.52237 3.76346 8.7214 3.5687C9.22719 3.07375 9.40513 3.12608 8.98955 3.64757C8.79978 3.88571 8.64451 4.20381 8.64451 4.35446C8.64451 4.6178 8.65867 4.61908 9.01103 4.38764C9.21261 4.25524 9.4825 4.05399 9.61079 3.9404C9.94753 3.64224 9.89772 3.92936 9.54114 4.34186C9.2434 4.6863 8.73003 5.88492 8.83347 5.99415C8.90403 6.06864 9.71768 5.62831 10.0106 5.3571C10.3474 5.04535 10.2972 5.2705 9.91067 5.80556C9.49984 6.37429 9.46617 6.66488 9.83526 6.45631C10.1826 6.26001 10.2439 6.27178 10.2439 6.53489C10.2439 6.65824 10.1239 6.79228 9.97731 6.83277C9.70685 6.90744 9.65971 7.02029 9.70562 7.48312C9.72577 7.6864 9.65402 7.73102 9.36608 7.69421C9.15782 7.66762 8.97688 7.7231 8.94491 7.82346C8.86847 8.06333 9.30532 8.04627 9.89439 7.78639C10.5304 7.50579 10.5144 7.71873 9.84402 8.45534C9.5508 8.77755 9.3109 9.09174 9.3109 9.15355C9.3109 9.41807 9.86857 9.22969 10.4336 8.77431C11.0768 8.25585 11.2513 8.3781 10.8321 9.0536C10.7159 9.24098 10.6552 9.4532 10.6974 9.5252C10.7395 9.59721 10.6503 9.69029 10.499 9.73204C10.3478 9.7738 10.191 9.94146 10.1506 10.1046C10.1102 10.2678 9.91972 10.4916 9.72733 10.602C9.47336 10.7477 9.44098 10.8042 9.60913 10.8083C9.7365 10.8115 10.1232 10.498 10.4684 10.1117C10.8867 9.64373 11.1287 9.46517 11.1938 9.57641C11.2475 9.66821 11.232 9.86069 11.1593 10.0041C11.0866 10.1476 11.0458 10.436 11.0686 10.645C11.0983 10.9164 11.0094 11.1155 10.7577 11.3417C10.5639 11.5158 10.339 11.6583 10.2579 11.6583C10.053 11.6583 10.0738 11.8731 10.2977 12.0693C10.5725 12.3101 11.0807 12.1231 11.6514 11.5711C12.0257 11.2091 12.1817 11.1311 12.2611 11.266C12.3198 11.3657 12.3093 11.4685 12.238 11.4944C12.1665 11.5204 12.1436 11.6023 12.1871 11.6765C12.2305 11.7507 12.2063 11.8878 12.1332 11.9811C12.0601 12.0745 11.9574 12.3934 11.905 12.6898C11.8525 12.9863 11.7122 13.2704 11.5931 13.3212C11.443 13.3853 11.5196 13.439 11.8432 13.4966L12.3097 13.5797L11.6467 13.7695C11.2821 13.8739 11.0572 13.9852 11.1469 14.0167C11.3672 14.0943 11.3532 14.4007 11.12 14.6051C10.8824 14.8132 11.0991 15.5987 11.3941 15.5987C11.7679 15.5987 12.5809 15.1574 12.8789 14.7927C13.0927 14.5311 13.2231 14.4663 13.3233 14.5721C13.4234 14.6779 13.3845 14.7814 13.1905 14.9249C13.0123 15.0566 12.9357 15.2366 12.9723 15.4375C13.0038 15.6099 12.9728 15.7105 12.9025 15.6646C12.833 15.6192 12.7762 15.6809 12.7762 15.8015C12.7762 15.9222 12.684 16.1318 12.5714 16.2672C11.9346 17.033 11.6833 17.4564 11.7953 17.5747C11.9498 17.7378 13.2605 16.7689 13.1982 16.5376C13.1738 16.4469 13.1992 16.4205 13.2542 16.4788C13.3095 16.5371 13.4996 16.4845 13.6767 16.362C13.8539 16.2394 14.0369 16.1793 14.0834 16.2284C14.1298 16.2775 14.0869 16.3705 13.9881 16.435C13.8892 16.4996 13.8484 16.6209 13.8974 16.7047C14.0758 17.0095 13.3621 18.1131 12.8533 18.3192C12.7237 18.3718 12.5863 18.5411 12.5481 18.6955C12.5098 18.8499 12.4105 18.9782 12.3275 18.9805C12.2444 18.9826 12.2772 19.0469 12.4003 19.1227C12.6748 19.2918 13.3422 19.0116 13.2171 18.7798C13.171 18.6943 13.1826 18.6716 13.2428 18.7293C13.3031 18.787 13.5489 18.6759 13.7891 18.4824C14.2564 18.1061 14.5334 18.2265 14.1447 18.6369C13.9948 18.7952 13.9655 18.9023 14.0627 18.9365C14.1459 18.9658 14.1835 19.1126 14.1463 19.2628C14.1091 19.4131 14.0255 19.5013 13.9605 19.4589C13.8956 19.4165 13.8424 19.5181 13.8424 19.6847C13.8424 19.8707 13.738 20.0165 13.5721 20.0623C13.3768 20.1162 13.3244 20.2121 13.3832 20.4077C13.428 20.5566 13.3923 20.7704 13.304 20.8828C13.1768 21.0446 13.1815 21.0868 13.3263 21.0854C13.4269 21.0843 13.7978 20.7361 14.1506 20.3114C14.8827 19.43 15.2443 19.2812 15.0011 19.9613C14.8881 20.2775 14.889 20.4921 15.0047 20.816C15.197 21.3541 15.114 21.6004 14.7036 21.7092C14.49 21.7658 14.4101 21.8634 14.4616 22.0049C14.515 22.1519 14.4766 22.1912 14.3356 22.134C14.2055 22.0813 14.1015 22.1563 14.0452 22.3435C13.997 22.5039 13.9016 22.6352 13.8333 22.6352C13.7649 22.6352 13.709 22.7249 13.709 22.8345C13.709 22.9442 13.634 23.0659 13.5424 23.1049C13.4346 23.1508 13.4511 23.1798 13.5889 23.187C13.7061 23.1931 14.0809 22.8993 14.4219 22.5342C15.0354 21.8771 15.0418 21.8743 15.0418 22.2583C15.0418 22.4718 14.9251 22.8878 14.7826 23.1829C14.6271 23.5047 14.5555 23.8492 14.6036 24.0437C14.6796 24.3505 14.6564 24.3632 14.1724 24.2803C13.6991 24.1992 13.6771 24.2099 13.8785 24.4225C14.1442 24.703 14.8894 24.7251 15.0463 24.457C15.1091 24.3496 15.1987 24.3019 15.2453 24.3511C15.3595 24.4718 15.0864 25.0085 14.659 25.5034C14.4217 25.7782 14.3625 25.9295 14.4754 25.9725C14.567 26.0075 14.642 26.0956 14.642 26.1684C14.642 26.2411 14.4946 26.1987 14.3146 26.0741C13.9987 25.8556 13.709 25.8944 13.709 26.1553C13.709 26.3607 14.6367 26.4826 14.9721 26.3212C15.1424 26.2393 15.3146 26.2069 15.3548 26.2493C15.4776 26.3791 15.0455 26.9639 14.7706 27.0398C14.6283 27.0791 14.4532 27.2599 14.3815 27.4415C14.1817 27.9479 13.9028 28.2643 13.6563 28.2643C13.4744 28.2643 13.4595 28.3164 13.5757 28.5458C13.7088 28.8083 13.6771 28.8272 13.1044 28.8272C12.7364 28.8272 12.4104 28.9118 12.2905 29.0383C12.1806 29.1544 11.915 29.2494 11.7003 29.2494C11.2534 29.2494 11.2104 29.3497 11.5432 29.6164C11.7538 29.7853 11.7377 29.804 11.3766 29.81C11.0687 29.8153 11.0227 29.848 11.1767 29.9531C11.2866 30.0281 11.3213 30.0905 11.2538 30.0916C11.1863 30.0927 11.0251 29.9926 10.8957 29.8689C10.7663 29.7452 10.5966 29.6856 10.5187 29.7365C10.2974 29.8809 10.3504 30.0372 10.6769 30.2035C10.9708 30.3532 10.9694 30.3564 10.6074 30.3657C10.3378 30.3727 10.197 30.2802 10.0862 30.0234C9.90369 29.6005 9.7106 29.5643 9.7106 29.9531C9.7106 30.1749 9.62174 30.2345 9.29096 30.2345H8.87132C8.50344 30.3557 8.76634 30.3209 8.35038 30.2823ZM6.82308 29.8361C6.77099 29.6258 6.67131 29.5936 6.28006 29.6607C5.55336 29.7855 5.55936 30.0938 6.28853 30.0938C6.80286 30.0938 6.87795 30.0576 6.82311 29.8361H6.82308ZM4.24624 28.107C4.24624 28.0296 4.18627 28.0054 4.11296 28.0532C4.03966 28.101 3.97969 28.2035 3.97969 28.2809C3.97969 28.3583 4.03966 28.3825 4.11296 28.3347C4.18627 28.2869 4.24624 28.1844 4.24624 28.107ZM5.40322 27.3338C5.83177 27.2124 5.64652 26.9327 5.1108 26.8923C4.81107 26.8696 4.64536 26.9196 4.64405 27.033C4.64253 27.1614 4.61085 27.1569 4.52664 27.0166C4.44062 26.8732 4.3479 26.8619 4.16216 26.972C3.8977 27.1287 3.95822 27.1799 4.57945 27.3251C4.99131 27.4213 5.09067 27.4223 5.40322 27.3338V27.3338ZM6.71192 27.2792C6.75721 27.2018 6.73077 27.1385 6.65315 27.1385C6.57552 27.1385 6.512 27.2018 6.512 27.2792C6.512 27.3566 6.53845 27.4199 6.57078 27.4199C6.60312 27.4199 6.66662 27.3566 6.71192 27.2792ZM13.4759 26.3416C13.3843 26.3026 13.2343 26.3026 13.1427 26.3416C13.0511 26.3807 13.126 26.4126 13.3093 26.4126C13.4925 26.4126 13.5675 26.3807 13.4759 26.3416ZM3.58861 25.4448C3.77048 25.342 3.84641 25.3444 3.84641 25.4531C3.84641 25.5378 3.91409 25.5629 3.99681 25.5089C4.10011 25.4415 4.08081 25.3716 3.9352 25.2855C3.69476 25.1434 3.04673 25.2743 3.04673 25.465C3.04673 25.6321 3.27202 25.6237 3.58861 25.4448V25.4448ZM13.8424 25.0275C14.0049 24.9166 13.9877 24.8907 13.7503 24.889C13.5897 24.8879 13.4212 24.9501 13.3759 25.0275C13.271 25.2067 13.5798 25.2067 13.8424 25.0275ZM4.6073 21.7028C4.63475 21.6156 4.51977 21.5099 4.35178 21.4678C4.18378 21.4258 3.91138 21.3471 3.74644 21.2932C3.31838 21.1531 3.36623 21.4539 3.81309 21.7121C4.22006 21.9473 4.53135 21.9436 4.6073 21.7028ZM14.7754 21.0168C14.7754 20.9007 14.6927 20.8057 14.5918 20.8057C14.4908 20.8057 14.3335 20.9007 14.2422 21.0168C14.1019 21.1953 14.1303 21.2279 14.4258 21.2279C14.6477 21.2279 14.7754 21.1507 14.7754 21.0168ZM5.6679 18.8998C5.6679 18.7766 5.59097 18.7138 5.49019 18.7546C5.38821 18.796 5.31248 18.7316 5.31248 18.6038C5.31248 18.4075 5.26881 18.4109 4.94597 18.6328C4.63998 18.843 4.6089 18.8467 4.75781 18.6547C4.9132 18.4545 4.89175 18.4131 4.59121 18.3334C4.40148 18.2832 4.24624 18.1539 4.24624 18.0462C4.24624 17.8295 3.90476 17.7775 3.78835 17.9764C3.6599 18.1959 4.15959 18.6978 4.71272 18.9049C5.41155 19.1666 5.6679 19.1652 5.6679 18.8996V18.8998ZM6.37873 15.3876C6.37873 15.2715 6.31875 15.1765 6.24544 15.1765C6.17214 15.1765 6.11216 15.2715 6.11216 15.3876C6.11216 15.5037 6.17214 15.5987 6.24544 15.5987C6.31875 15.5987 6.37873 15.5037 6.37873 15.3876ZM6.37873 13.7692C6.37873 13.6918 6.31521 13.6285 6.23758 13.6285C6.15995 13.6285 6.1335 13.6918 6.17881 13.7692C6.2241 13.8466 6.28762 13.9099 6.31995 13.9099C6.35229 13.9099 6.37873 13.8466 6.37873 13.7692ZM5.97889 13.4174C5.97889 13.3013 5.92533 13.2063 5.85987 13.2063C5.79441 13.2063 5.70633 13.3013 5.66413 13.4174C5.61738 13.546 5.66392 13.6285 5.78315 13.6285C5.8908 13.6285 5.97889 13.5335 5.97889 13.4174ZM10.777 12.5027C10.9493 12.3851 10.9457 12.3659 10.7515 12.3641C10.6276 12.363 10.4891 12.4253 10.4438 12.5027C10.3395 12.6808 10.516 12.6808 10.777 12.5027H10.777ZM8.04473 9.12516C8.09067 9.04668 7.99096 8.98538 7.81935 8.98658C7.57177 8.98818 7.55068 9.01541 7.71152 9.12516C7.95953 9.29438 7.94568 9.29438 8.04473 9.12516ZM5.79741 8.21042C5.7552 8.09431 5.77877 7.99932 5.84979 7.99932C5.92079 7.99932 5.97889 8.09431 5.97889 8.21042C5.97889 8.32652 5.95531 8.42151 5.9265 8.42151C5.89769 8.42151 5.8396 8.32652 5.79741 8.21042ZM7.44497 4.19522C7.44497 4.12025 7.53493 4.05891 7.64488 4.05891C7.75484 4.05891 7.8448 4.0838 7.8448 4.11422C7.8448 4.14464 7.75484 4.20598 7.64488 4.25053C7.53493 4.29508 7.44497 4.27019 7.44497 4.19522ZM8.36773 3.33181C8.268 2.87303 8.29268 2.79235 8.53277 2.79235C8.70808 2.79235 8.78277 2.87148 8.75421 3.02696C8.71789 3.22471 8.39911 3.47616 8.36773 3.33181ZM8.3041 2.3579C8.25484 2.27375 8.28129 2.13443 8.36288 2.0483C8.47179 1.9333 8.5112 1.97395 8.5112 2.20129C8.5112 2.54108 8.44197 2.59343 8.3041 2.3579ZM8.32234 1.40394C8.26493 1.30586 8.25395 1.1876 8.29796 1.14114C8.41725 1.0152 8.5473 1.20044 8.48287 1.40451C8.43774 1.54752 8.40633 1.54741 8.32236 1.40393L8.32234 1.40394ZM8.38845 0.177133C8.39485 0.0131918 8.42644 -0.0201555 8.46898 0.0921083C8.50746 0.193697 8.50273 0.315076 8.45845 0.361839C8.41417 0.408603 8.38265 0.325485 8.38844 0.177133H8.38845Z" fill="#314F17"/>
<path d="M8.31767 32.611C8.31667 31.8951 8.2807 31.0825 8.23727 30.8054L8.22296 30.2924C8.66853 30.2432 8.61677 30.2431 9.18219 30.206L9.14466 31.3301C9.1698 31.6906 9.1497 32.1188 9.18476 32.4819C9.21181 32.7619 9.23227 33.0881 9.25386 33.2481C9.34191 33.9006 9.4052 33.9128 9.06229 33.9128H8.319L8.3175 32.6111L8.31767 32.611Z" fill="#522F14"/>
<path d="M24.4019 30.3173L23.6502 30.4522C23.2368 30.5264 22.8272 30.6877 22.74 30.8106C22.6186 30.9816 22.5443 30.9958 22.423 30.8712C22.3358 30.7817 22.1872 30.7394 22.0928 30.7771C21.9984 30.8149 21.8859 30.7319 21.8427 30.5927C21.7424 30.269 21.0974 29.9299 21.0974 30.2008C21.0974 30.3147 20.9974 30.3558 20.8309 30.3104C20.4391 30.2036 20.4998 30.0813 21.1265 29.7143L21.6887 29.3851L21.2931 29.2745C21.0755 29.2137 20.5289 29.1697 20.0784 29.1765C19.6278 29.1834 19.148 29.1217 19.0121 29.0394C18.7986 28.9101 18.8239 28.8892 19.1982 28.8856C19.4364 28.8835 19.6314 28.824 19.6314 28.7539C19.6314 28.6837 19.6678 28.5275 19.7123 28.4067C19.7567 28.2858 19.7268 28.187 19.6456 28.187C19.5645 28.187 19.4981 28.2807 19.4981 28.3953C19.4981 28.6586 19.4329 28.6565 19.0281 28.3801C18.848 28.2572 18.7394 28.0913 18.7868 28.0115C18.8369 27.927 18.8086 27.9077 18.719 27.9655C18.6344 28.02 18.5651 27.9984 18.5651 27.9175C18.5651 27.8366 18.4378 27.7704 18.2822 27.7704C18.0515 27.7704 18.0286 27.7337 18.1582 27.571C18.2777 27.4209 18.2797 27.2989 18.1663 27.078C18.0834 26.9166 18.0343 26.629 18.0571 26.439L18.0987 26.0935L18.5401 26.5153C19.002 26.9568 19.6314 27.0857 19.6314 26.7387C19.6314 26.4901 19.2701 26.1039 19.0377 26.1039C18.8491 26.1039 18.6831 25.4737 18.7931 25.1753C18.83 25.0749 18.9402 24.9928 19.038 24.9928C19.1358 24.9928 19.2544 24.9279 19.3015 24.8484C19.3575 24.754 19.2565 24.7356 19.0095 24.7955C18.644 24.884 18.6404 24.8797 18.8984 24.662C19.1486 24.4509 19.1506 24.4282 18.9316 24.2915C18.6369 24.1074 18.6299 23.8818 18.919 23.8818C19.1243 23.8818 19.1243 23.8642 18.919 23.6279C18.7977 23.4882 18.6984 23.3319 18.6984 23.2807C18.6984 23.1127 19.2364 23.1829 19.6477 23.4046C19.9019 23.5415 20.1947 23.5887 20.4408 23.5324C20.8292 23.4435 20.989 23.1874 20.6561 23.1874C20.56 23.1874 20.3526 23.0625 20.1952 22.9097C20.0378 22.7569 19.8466 22.6319 19.7702 22.6319C19.6939 22.6319 19.6314 22.5694 19.6314 22.4931C19.6314 22.4167 19.5479 22.3542 19.4459 22.3542C19.3439 22.3542 19.2228 22.1979 19.1768 22.007C19.1308 21.816 19.0044 21.6598 18.8958 21.6598C18.7872 21.6598 18.6984 21.5407 18.6984 21.395C18.6984 21.2003 18.7676 21.1491 18.9602 21.2016C19.1095 21.2423 19.3214 21.1694 19.4534 21.0319C19.673 20.803 19.6702 20.7785 19.3972 20.5481C19.239 20.4147 19.1503 20.2631 19.2 20.2113C19.2498 20.1595 19.2265 20.0736 19.1483 20.0204C19.07 19.9673 18.9644 19.7467 18.9135 19.5303C18.8109 19.0938 18.8508 19.1029 19.5981 19.6874C19.8363 19.8738 20.0312 19.9639 20.0312 19.8878C20.0312 19.8117 19.8963 19.6451 19.7313 19.5177C19.5664 19.3903 19.5064 19.3238 19.5981 19.3701C19.6897 19.4163 19.7628 19.4036 19.7604 19.3418C19.7529 19.141 19.4064 18.7434 19.2391 18.7434C19.1494 18.7434 19.111 18.6652 19.1537 18.5698C19.1964 18.4743 19.2665 18.2944 19.3094 18.1701C19.4077 17.8851 20.0074 17.5772 20.385 17.6178C20.5429 17.6349 20.7114 17.5826 20.7594 17.5017C20.8074 17.4208 20.7496 17.3546 20.631 17.3546C20.5124 17.3546 20.4498 17.2964 20.492 17.2253C20.5342 17.1542 20.5077 17.0568 20.4332 17.0088C20.3587 16.9608 20.2978 16.7653 20.2978 16.5744C20.2978 16.3834 20.2478 16.2594 20.1867 16.2987C20.1256 16.3381 20.0757 16.2834 20.0757 16.1773C20.0757 16.0461 20.2576 16.1148 20.6439 16.3917C21.2308 16.8125 21.4973 16.8977 21.4973 16.6646C21.4973 16.5906 21.4223 16.5597 21.3307 16.5959C21.2193 16.64 21.1561 16.499 21.1399 16.1702C21.1239 15.8447 21.0114 15.5904 20.8067 15.4175C20.4077 15.0804 20.5658 14.9128 21.039 15.1712C21.32 15.3246 21.4915 15.3361 21.7839 15.2211C21.9928 15.1389 22.1637 15.0184 22.1637 14.9533C22.1637 14.7507 21.8363 14.4824 21.6627 14.5427C21.5717 14.5743 21.4973 14.5109 21.4973 14.4018C21.4973 14.2927 21.3774 14.0903 21.2307 13.9521C20.868 13.61 20.8853 13.2983 21.2641 13.3531C21.5068 13.3883 21.5722 13.3214 21.6073 13.002C21.6444 12.6647 21.6127 12.62 21.3891 12.6939C21.1669 12.7674 21.1182 12.7016 21.0648 12.2552C21.0303 11.9664 21.0094 11.7188 21.0183 11.705C21.0273 11.6912 21.3435 11.9821 21.721 12.3515C22.5284 13.1415 22.8794 13.2957 23.1733 12.9894C23.3298 12.8263 23.3381 12.7717 23.2061 12.772C22.8454 12.7731 21.8971 12.1439 21.8971 11.9039C21.8971 11.6019 22.2366 11.5905 22.8805 11.8708C23.3394 12.0706 23.3632 12.0676 23.3632 11.8095C23.3632 11.6602 23.3032 11.4995 23.2299 11.4523C23.1566 11.4051 23.0967 11.2504 23.0967 11.1085C23.0967 10.7669 22.818 10.6753 22.5414 10.9258C22.3066 11.1386 21.6306 11.2738 21.6306 11.1081C21.6306 11.0543 21.9455 10.8286 22.3303 10.6064L23.03 10.2024L22.3858 10.1596L21.7417 10.1168L22.0983 9.77245C22.3095 9.56845 22.4234 9.34262 22.3777 9.21843C22.31 9.03449 22.3366 9.03514 22.595 9.22368C22.7569 9.34188 22.9649 9.43859 23.0571 9.43859C23.3377 9.43859 23.4056 8.79198 23.1756 8.31154C22.909 7.75476 22.9623 7.69139 23.3972 8.04787C23.7309 8.32135 24.1629 8.42413 24.1629 8.23002C24.1629 8.17637 23.9918 7.94202 23.7828 7.70923C23.5737 7.47645 23.2991 7.00476 23.1725 6.66104L22.9424 6.03609L23.231 6.35562C23.4734 6.6241 23.5549 6.64702 23.7412 6.49908C23.8632 6.40224 23.9802 6.3134 24.0013 6.30165C24.0223 6.28991 23.9682 6.11702 23.8809 5.91746C23.7399 5.59499 23.7616 5.51365 24.0759 5.18619C24.4571 4.789 24.5046 4.64268 24.2962 4.50844C24.2229 4.46123 24.1629 4.36012 24.1629 4.28373C24.1629 4.20735 24.2187 4.18081 24.287 4.22475C24.3552 4.2687 24.5739 4.1474 24.7729 3.9552C25.2787 3.46676 25.4566 3.5184 25.0411 4.03302C24.8513 4.26803 24.696 4.58195 24.696 4.73061C24.696 4.99049 24.7102 4.99175 25.0625 4.76336C25.2641 4.63271 25.534 4.4341 25.6623 4.322C25.999 4.02776 25.9492 4.31111 25.5927 4.71818C25.2949 5.05809 24.7815 6.24094 24.885 6.34873C24.9555 6.42224 25.7692 5.98771 26.0621 5.72007C26.3989 5.41242 26.3487 5.6346 25.9622 6.16263C25.5514 6.72387 25.5177 7.01064 25.8868 6.80481C26.2342 6.61109 26.2954 6.62271 26.2954 6.88236C26.2954 7.00409 26.1754 7.13636 26.0288 7.17631C25.7584 7.25001 25.7112 7.36137 25.7571 7.81811C25.7773 8.01872 25.7055 8.06275 25.4176 8.02643C25.2093 8.00018 25.0284 8.05493 24.9964 8.15397C24.92 8.39069 25.3568 8.37385 25.9459 8.11739C26.5819 7.84049 26.5659 8.05062 25.8955 8.77754C25.6023 9.09551 25.3624 9.40557 25.3624 9.46657C25.3624 9.7276 25.9201 9.5417 26.4851 9.09231C27.1284 8.58067 27.3028 8.70132 26.8836 9.36793C26.7674 9.55284 26.7067 9.76227 26.7489 9.83332C26.791 9.90438 26.7018 9.99623 26.5505 10.0374C26.3993 10.0786 26.2425 10.2441 26.2021 10.4051C26.1617 10.5661 25.9712 10.787 25.7788 10.8959C25.5249 11.0397 25.4925 11.0955 25.6606 11.0996C25.788 11.1027 26.1747 10.7933 26.5199 10.4121C26.9383 9.9503 27.1802 9.77409 27.2453 9.88386C27.299 9.97445 27.2836 10.1644 27.2108 10.306C27.1381 10.4475 27.0973 10.7321 27.1201 10.9384C27.1498 11.2062 27.061 11.4027 26.8093 11.6259C26.6154 11.7978 26.3905 11.9384 26.3095 11.9384C26.1045 11.9384 26.1253 12.1504 26.3492 12.344C26.624 12.5816 27.1322 12.397 27.7029 11.8523C28.0772 11.4951 28.2332 11.418 28.3126 11.5512C28.3713 11.6496 28.3609 11.751 28.2895 11.7766C28.2181 11.8023 28.1952 11.8831 28.2386 11.9563C28.282 12.0295 28.2578 12.1648 28.1847 12.2569C28.1116 12.3491 28.0089 12.6638 27.9565 12.9563C27.904 13.2489 27.7637 13.5292 27.6447 13.5794C27.4945 13.6426 27.5711 13.6956 27.8947 13.7525L28.3612 13.8345L27.6982 14.0218C27.3336 14.1248 27.1087 14.2346 27.1984 14.2658C27.4187 14.3423 27.4047 14.6447 27.1715 14.8463C26.9339 15.0518 27.1506 15.8269 27.4456 15.8269C27.8194 15.8269 28.6324 15.3914 28.9304 15.0315C29.1442 14.7733 29.2746 14.7094 29.3748 14.8138C29.475 14.9182 29.436 15.0203 29.242 15.1619C29.0638 15.292 28.9872 15.4696 29.0239 15.6678C29.0553 15.838 29.0244 15.9372 28.954 15.8919C28.8845 15.8472 28.8277 15.908 28.8277 16.0271C28.8277 16.1461 28.7355 16.3529 28.6229 16.4866C27.9861 17.2424 27.7348 17.6602 27.8469 17.7769C28.0013 17.9379 29.312 16.9817 29.2497 16.7535C29.2253 16.664 29.2507 16.6379 29.3057 16.6954C29.361 16.753 29.5511 16.7011 29.7282 16.5802C29.9054 16.4592 30.0884 16.3999 30.1349 16.4484C30.1814 16.4968 30.1384 16.5886 30.0396 16.6522C29.9407 16.7159 29.8999 16.8357 29.9489 16.9184C30.1273 17.2191 29.4136 18.3082 28.9048 18.5116C28.7752 18.5635 28.6378 18.7306 28.5996 18.883C28.5613 19.0353 28.4621 19.1619 28.379 19.1642C28.2959 19.1663 28.3287 19.2297 28.4518 19.3046C28.7263 19.4714 29.3937 19.1949 29.2686 18.9661C29.2225 18.8818 29.2341 18.8594 29.2944 18.9163C29.3546 18.9732 29.6005 18.8636 29.8406 18.6727C30.3079 18.3014 30.5849 18.4201 30.1962 18.8252C30.0463 18.9814 30.017 19.087 30.1142 19.1208C30.1974 19.1497 30.235 19.2946 30.1978 19.4428C30.1606 19.5911 30.077 19.6781 30.012 19.6363C29.9471 19.5945 29.8939 19.6948 29.8939 19.8592C29.8939 20.0427 29.7896 20.1866 29.6236 20.2318C29.4283 20.285 29.3759 20.3796 29.4347 20.5726C29.4795 20.7196 29.4438 20.9306 29.3555 21.0415C29.2283 21.2011 29.233 21.2428 29.3778 21.2414C29.4784 21.2403 29.8494 20.8967 30.2021 20.4776C30.9342 19.6078 31.2958 19.4609 31.0526 20.1321C30.9396 20.4442 30.9405 20.6559 31.0562 20.9755C31.2485 21.5066 31.1655 21.7497 30.7552 21.857C30.5415 21.9128 30.4616 22.0092 30.5131 22.1488C30.5665 22.2939 30.5281 22.3326 30.3871 22.2763C30.257 22.2242 30.153 22.2983 30.0968 22.483C30.0485 22.6413 29.9532 22.7708 29.8848 22.7708C29.8164 22.7708 29.7605 22.8593 29.7605 22.9675C29.7605 23.0758 29.6855 23.1958 29.5939 23.2343C29.4861 23.2796 29.5026 23.3083 29.6404 23.3153C29.7576 23.3214 30.1324 23.0315 30.4734 22.6711C31.0869 22.0227 31.0933 22.0199 31.0933 22.3989C31.0933 22.6095 30.9766 23.0201 30.8341 23.3113C30.6786 23.6289 30.607 23.9689 30.6552 24.1608C30.7311 24.4636 30.708 24.4761 30.2239 24.3943C29.7506 24.3142 29.7286 24.3248 29.93 24.5346C30.1957 24.8114 30.9409 24.8332 31.0978 24.5686C31.1606 24.4626 31.2502 24.4156 31.2968 24.4642C31.411 24.5832 31.138 25.1129 30.7105 25.6013C30.4732 25.8725 30.414 26.0217 30.5269 26.0643C30.6185 26.0987 30.6935 26.1857 30.6935 26.2575C30.6935 26.3293 30.5462 26.2874 30.3661 26.1645C30.0502 25.9488 29.7605 25.9872 29.7605 26.2446C29.7605 26.4473 30.6882 26.5676 31.0236 26.4083C31.1939 26.3275 31.3661 26.2955 31.4063 26.3374C31.5292 26.4654 31.097 27.0426 30.8221 27.1175C30.6798 27.1563 30.5047 27.3346 30.4331 27.5139C30.2332 28.0136 29.9543 28.3259 29.7078 28.3259C29.5259 28.3259 29.511 28.3773 29.6272 28.6036C29.7603 28.8627 29.7286 28.8814 29.1559 28.8814C28.7879 28.8814 28.4619 28.9648 28.342 29.0897C28.2321 29.2043 27.9665 29.298 27.7518 29.298C27.3049 29.298 27.2619 29.397 27.5947 29.6602C27.8053 29.8268 27.7892 29.8453 27.4281 29.8512C27.1202 29.8565 27.0742 29.8887 27.2282 29.9924C27.3381 30.0665 27.3729 30.128 27.3053 30.1292C27.2378 30.1302 27.0766 30.0314 26.9472 29.9094C26.8178 29.7873 26.6481 29.7285 26.5702 29.7787C26.3489 29.9212 26.4019 30.0755 26.7284 30.2395C27.0223 30.3872 27.0209 30.3904 26.6589 30.3996C26.3893 30.4065 26.2485 30.3152 26.1377 30.0618C25.9552 29.6445 25.7621 29.6088 25.7621 29.9924C25.7621 30.2113 25.6733 30.2702 25.3425 30.2702H24.9228C24.555 30.3897 24.8179 30.3554 24.4019 30.3173ZM22.8746 29.877C22.8225 29.6694 22.7228 29.6377 22.3316 29.7039C21.6049 29.827 21.6109 30.1313 22.34 30.1313C22.8544 30.1313 22.9295 30.0956 22.8746 29.877H22.8746ZM20.2978 28.1706C20.2978 28.0942 20.2378 28.0703 20.1645 28.1176C20.0912 28.1647 20.0312 28.2659 20.0312 28.3423C20.0312 28.4186 20.0912 28.4425 20.1645 28.3953C20.2378 28.3481 20.2978 28.247 20.2978 28.1706ZM21.4547 27.4076C21.8833 27.2878 21.698 27.0118 21.1623 26.9719C20.8626 26.9495 20.6969 26.9989 20.6956 27.1108C20.694 27.2374 20.6624 27.233 20.5781 27.0946C20.4921 26.9531 20.3994 26.9419 20.2137 27.0505C19.9492 27.2052 20.0097 27.2557 20.631 27.399C21.0428 27.4939 21.1422 27.495 21.4547 27.4076V27.4076ZM22.7634 27.3537C22.8087 27.2773 22.7823 27.2148 22.7047 27.2148C22.627 27.2148 22.5635 27.2773 22.5635 27.3537C22.5635 27.4301 22.59 27.4926 22.6223 27.4926C22.6546 27.4926 22.7181 27.4301 22.7634 27.3537ZM29.5274 26.4285C29.4358 26.39 29.2858 26.39 29.1942 26.4285C29.1026 26.467 29.1775 26.4985 29.3608 26.4985C29.5441 26.4985 29.619 26.467 29.5274 26.4285ZM19.6401 25.5434C19.822 25.442 19.8979 25.4444 19.8979 25.5516C19.8979 25.6352 19.9656 25.66 20.0483 25.6067C20.1516 25.5402 20.1323 25.4712 19.9867 25.3863C19.7463 25.246 19.0982 25.3752 19.0982 25.5634C19.0982 25.7283 19.3235 25.72 19.6401 25.5434V25.5434ZM29.8939 25.1317C30.0564 25.0222 30.0392 24.9967 29.8018 24.9949C29.6412 24.9939 29.4727 25.0553 29.4274 25.1317C29.3226 25.3085 29.6313 25.3085 29.8939 25.1317ZM20.6588 21.8506C20.6863 21.7647 20.5713 21.6604 20.4033 21.6188C20.2353 21.5773 19.9629 21.4997 19.798 21.4465C19.3699 21.3082 19.4177 21.6051 19.8646 21.8599C20.2716 22.092 20.5829 22.0883 20.6588 21.8506ZM30.8269 21.1737C30.8269 21.0591 30.7443 20.9654 30.6433 20.9654C30.5423 20.9654 30.385 21.0591 30.2938 21.1737C30.1534 21.3498 30.1818 21.382 30.4774 21.382C30.6992 21.382 30.8269 21.3059 30.8269 21.1737ZM21.7194 19.0845C21.7194 18.963 21.6425 18.901 21.5417 18.9413C21.4397 18.9821 21.364 18.9186 21.364 18.7924C21.364 18.5987 21.3203 18.6021 20.9975 18.821C20.6915 19.0285 20.6604 19.0321 20.8093 18.8427C20.9647 18.6451 20.9433 18.6043 20.6427 18.5257C20.453 18.4761 20.2978 18.3485 20.2978 18.2422C20.2978 18.0284 19.9563 17.9771 19.8399 18.1733C19.7114 18.3899 20.2111 18.8852 20.7642 19.0896C21.4631 19.3479 21.7194 19.3465 21.7194 19.0844V19.0845ZM22.4302 15.6186C22.4302 15.504 22.3703 15.4103 22.297 15.4103C22.2237 15.4103 22.1637 15.504 22.1637 15.6186C22.1637 15.7332 22.2237 15.8269 22.297 15.8269C22.3703 15.8269 22.4302 15.7332 22.4302 15.6186ZM22.4302 14.0215C22.4302 13.9451 22.3667 13.8826 22.2891 13.8826C22.2115 13.8826 22.185 13.9451 22.2303 14.0215C22.2756 14.0979 22.3391 14.1604 22.3715 14.1604C22.4038 14.1604 22.4302 14.0979 22.4302 14.0215ZM22.0304 13.6743C22.0304 13.5597 21.9768 13.466 21.9114 13.466C21.8459 13.466 21.7578 13.5597 21.7156 13.6743C21.6689 13.8012 21.7154 13.8826 21.8347 13.8826C21.9423 13.8826 22.0304 13.7889 22.0304 13.6743ZM26.8285 12.7716C27.0008 12.6556 26.9972 12.6367 26.803 12.6348C26.6791 12.6338 26.5406 12.6952 26.4953 12.7716C26.391 12.9474 26.5675 12.9474 26.8285 12.7716H26.8285ZM24.0962 9.43854C24.1422 9.3611 24.0425 9.30061 23.8709 9.30179C23.6233 9.30337 23.6022 9.33024 23.763 9.43854C24.011 9.60554 23.9972 9.60554 24.0962 9.43854ZM21.8489 8.53584C21.8067 8.42126 21.8303 8.32752 21.9013 8.32752C21.9723 8.32752 22.0304 8.42126 22.0304 8.53584C22.0304 8.65041 22.0068 8.74415 21.978 8.74415C21.9492 8.74415 21.8911 8.65041 21.8489 8.53584ZM23.4965 4.57347C23.4965 4.49949 23.5864 4.43895 23.6964 4.43895C23.8063 4.43895 23.8963 4.46351 23.8963 4.49354C23.8963 4.52355 23.8063 4.58409 23.6964 4.62805C23.5864 4.67202 23.4965 4.64746 23.4965 4.57347ZM24.4192 3.72142C24.3195 3.26868 24.3442 3.18906 24.5843 3.18906C24.7596 3.18906 24.8343 3.26715 24.8057 3.42058C24.7694 3.61573 24.4506 3.86387 24.4192 3.72142ZM24.3556 2.76032C24.3064 2.67729 24.3328 2.5398 24.4144 2.4548C24.5233 2.34131 24.5627 2.38143 24.5627 2.60577C24.5627 2.94109 24.4935 2.99276 24.3556 2.76032ZM24.3739 1.81892C24.3164 1.72212 24.3055 1.60542 24.3495 1.55958C24.4688 1.43529 24.5988 1.61809 24.5344 1.81948C24.4893 1.96061 24.4578 1.9605 24.3739 1.81891L24.3739 1.81892ZM24.44 0.608254C24.4464 0.44647 24.4779 0.413561 24.5205 0.524348C24.559 0.6246 24.5542 0.744382 24.51 0.79053C24.4657 0.836678 24.4342 0.754654 24.44 0.608254H24.44Z" fill="#436B1F"/>
<path d="M24.3692 32.6154C24.3682 31.9089 24.3322 31.107 24.2888 30.8335L24.2745 30.3273C24.72 30.2787 24.6683 30.2786 25.2337 30.242L25.1962 31.3513C25.2213 31.7071 25.2012 32.1297 25.2363 32.488C25.2633 32.7642 25.2838 33.0862 25.3054 33.2441C25.3934 33.888 25.4567 33.9001 25.1138 33.9001H24.3705L24.369 32.6154L24.3692 32.6154Z" fill="#5F3512"/>
<path d="M16.3086 31.8294L15.4066 31.9913C14.9105 32.0804 14.419 32.2739 14.3143 32.4214C14.1686 32.6267 14.0795 32.6437 13.9339 32.4942C13.8292 32.3868 13.651 32.3359 13.5377 32.3812C13.4244 32.4265 13.2894 32.3269 13.2376 32.1599C13.1171 31.7715 12.3432 31.3646 12.3432 31.6896C12.3432 31.8263 12.2232 31.8756 12.0233 31.8212C11.5532 31.6931 11.626 31.5463 12.3781 31.1059L13.0527 30.7108L12.578 30.5781C12.3169 30.5052 11.661 30.4523 11.1203 30.4606C10.5797 30.4688 10.0039 30.3948 9.84084 30.296C9.58462 30.1409 9.61495 30.1158 10.0641 30.1114C10.35 30.1089 10.5839 30.0375 10.5839 29.9533C10.5839 29.8692 10.6276 29.6817 10.681 29.5367C10.7344 29.3917 10.6984 29.2731 10.601 29.2731C10.5037 29.2731 10.424 29.3856 10.424 29.5231C10.424 29.839 10.3457 29.8365 9.85996 29.5049C9.6439 29.3573 9.51361 29.1583 9.57042 29.0625C9.63057 28.9611 9.5966 28.938 9.48909 29.0072C9.38753 29.0726 9.30443 29.0467 9.30443 28.9497C9.30443 28.8526 9.15168 28.7732 8.96498 28.7732C8.68809 28.7732 8.66066 28.7291 8.81615 28.5339C8.95957 28.3538 8.96197 28.2073 8.82588 27.9423C8.72639 27.7486 8.66742 27.4036 8.69483 27.1755L8.74469 26.7609L9.27436 27.2671C9.82873 27.7969 10.584 27.9515 10.584 27.5352C10.584 27.2369 10.1505 26.7733 9.87148 26.7733C9.64525 26.7733 9.44607 26.0171 9.57796 25.659C9.62227 25.5386 9.75458 25.4401 9.87192 25.4401C9.98927 25.4401 10.1315 25.3621 10.1881 25.2668C10.2553 25.1535 10.134 25.1315 9.83767 25.2033C9.39909 25.3095 9.39478 25.3043 9.70431 25.0432C10.0046 24.7898 10.0071 24.7626 9.74427 24.5985C9.39058 24.3776 9.38222 24.1069 9.7291 24.1069C9.97539 24.1069 9.97539 24.0857 9.7291 23.8021C9.58352 23.6345 9.46441 23.447 9.46441 23.3855C9.46441 23.184 10.11 23.2682 10.6036 23.5342C10.9086 23.6985 11.26 23.7552 11.5552 23.6876C12.0213 23.5809 12.2131 23.2736 11.8136 23.2736C11.6983 23.2736 11.4494 23.1236 11.2605 22.9403C11.0717 22.757 10.8422 22.607 10.7506 22.607C10.6589 22.607 10.584 22.532 10.584 22.4404C10.584 22.3487 10.4838 22.2737 10.3614 22.2737C10.239 22.2737 10.0937 22.0862 10.0385 21.8571C9.98328 21.6279 9.83153 21.4405 9.70126 21.4405C9.57099 21.4405 9.46441 21.2975 9.46441 21.1227C9.46441 20.889 9.54745 20.8277 9.77855 20.8906C9.95774 20.9395 10.212 20.852 10.3703 20.6869C10.6339 20.4123 10.6305 20.3829 10.3029 20.1065C10.1131 19.9463 10.0066 19.7644 10.0663 19.7022C10.126 19.6401 10.0981 19.537 10.0042 19.4732C9.91033 19.4095 9.78357 19.1448 9.72252 18.885C9.59941 18.3613 9.64724 18.3722 10.544 19.0736C10.8299 19.2972 11.0638 19.4054 11.0638 19.3141C11.0638 19.2227 10.9018 19.0229 10.7039 18.8699C10.506 18.717 10.434 18.6373 10.544 18.6928C10.6539 18.7483 10.7416 18.733 10.7388 18.6589C10.7297 18.4179 10.314 17.9407 10.1132 17.9407C10.0056 17.9407 9.9595 17.847 10.0108 17.7324C10.062 17.6178 10.1461 17.402 10.1976 17.2528C10.3156 16.9108 11.0352 16.5414 11.4883 16.5901C11.6778 16.6105 11.88 16.5478 11.9376 16.4507C11.9952 16.3536 11.9258 16.2742 11.7835 16.2742C11.6412 16.2742 11.5661 16.2044 11.6167 16.1191C11.6673 16.0337 11.6356 15.9168 11.5462 15.8593C11.4568 15.8017 11.3836 15.5671 11.3836 15.3379C11.3836 15.1088 11.3237 14.9599 11.2504 15.0072C11.1771 15.0544 11.1171 14.9888 11.1171 14.8614C11.1171 14.704 11.3355 14.7865 11.799 15.1187C12.5033 15.6237 12.8231 15.7259 12.8231 15.4462C12.8231 15.3574 12.7331 15.3203 12.6231 15.3638C12.4894 15.4167 12.4136 15.2475 12.3942 14.853C12.375 14.4623 12.24 14.1572 11.9944 13.9497C11.5156 13.5452 11.7052 13.3441 12.2731 13.6541C12.6102 13.8382 12.8161 13.852 13.1669 13.714C13.4176 13.6154 13.6227 13.4708 13.6227 13.3927C13.6227 13.1496 13.2299 12.8276 13.0216 12.9C12.9124 12.9379 12.8231 12.8618 12.8231 12.7309C12.8231 12.6 12.6791 12.3571 12.5032 12.1912C12.0678 11.7807 12.0886 11.4066 12.5432 11.4725C12.8345 11.5147 12.913 11.4344 12.9551 11.0511C12.9996 10.6463 12.9615 10.5927 12.6933 10.6814C12.4265 10.7696 12.3681 10.6906 12.3041 10.155C12.2626 9.80837 12.2375 9.51123 12.2482 9.49468C12.259 9.47811 12.6384 9.82725 13.0915 10.2705C14.0604 11.2185 14.4815 11.4035 14.8342 11.036C15.0221 10.8403 15.032 10.7748 14.8737 10.7751C14.4408 10.7764 13.3029 10.0214 13.3029 9.73338C13.3029 9.37097 13.7102 9.35726 14.4829 9.69364C15.0336 9.93342 15.0622 9.92979 15.0622 9.62014C15.0622 9.441 14.9902 9.24809 14.9022 9.19144C14.8143 9.13482 14.7423 8.94913 14.7423 8.77886C14.7423 8.369 14.4079 8.25902 14.076 8.55971C13.7943 8.81497 12.983 8.97727 12.983 8.77837C12.983 8.71389 13.3608 8.44298 13.8227 8.17634L14.6623 7.69157L13.8893 7.64023L13.1163 7.5889L13.5442 7.17565C13.7977 6.93084 13.9344 6.65985 13.8795 6.51082C13.7983 6.29009 13.8302 6.29087 14.1402 6.51712C14.3346 6.65896 14.5842 6.77501 14.6949 6.77501C15.0315 6.77501 15.113 5.99908 14.837 5.42255C14.5171 4.75441 14.581 4.67837 15.103 5.10615C15.5034 5.43433 16.0218 5.55766 16.0218 5.32473C16.0218 5.26035 15.8165 4.97912 15.5656 4.69978C15.3147 4.42044 14.9852 3.85442 14.8333 3.44195L14.5572 2.69201L14.9035 3.07545C15.1944 3.39763 15.2922 3.42513 15.5158 3.2476C15.6621 3.13139 15.8026 3.02478 15.8278 3.01069C15.8531 2.9966 15.7881 2.78913 15.6834 2.54966C15.5142 2.16269 15.5402 2.06508 15.9173 1.67214C16.3748 1.1955 16.4318 1.01992 16.1817 0.858834C16.0938 0.802184 16.0218 0.680843 16.0218 0.589184C16.0218 0.497525 16.0888 0.465678 16.1707 0.518411C16.2525 0.571144 16.5149 0.425581 16.7538 0.19494C17.3607 -0.391185 17.5743 -0.329211 17.0756 0.288335C16.8478 0.570345 16.6615 0.947043 16.6615 1.12544C16.6615 1.4373 16.6785 1.43881 17.1013 1.16474C17.3432 1.00795 17.6671 0.76962 17.8211 0.63511C18.2251 0.282023 18.1654 0.622039 17.7375 1.11052C17.3802 1.51841 16.7641 2.93783 16.8883 3.06718C16.9729 3.1554 17.9493 2.63396 18.3009 2.31279C18.7049 1.94361 18.6447 2.21023 18.1809 2.84386C17.6879 3.51735 17.6475 3.86147 18.0904 3.61447C18.5073 3.38201 18.5808 3.39596 18.5808 3.70754C18.5808 3.85361 18.4368 4.01234 18.2609 4.06028C17.9363 4.14872 17.8798 4.28235 17.9348 4.83044C17.959 5.07117 17.8729 5.124 17.5274 5.08042C17.2775 5.04892 17.0604 5.11462 17.022 5.23347C16.9303 5.51753 17.4545 5.49733 18.1614 5.18957C18.9246 4.85729 18.9054 5.10945 18.1009 5.98176C17.7491 6.36332 17.4612 6.73539 17.4612 6.80858C17.4612 7.12183 18.1304 6.89874 18.8084 6.35948C19.5803 5.74551 19.7897 5.89029 19.2867 6.69022C19.1471 6.91211 19.0744 7.16343 19.1249 7.24869C19.1755 7.33396 19.0684 7.44419 18.8869 7.49364C18.7055 7.54308 18.5173 7.74163 18.4688 7.93485C18.4204 8.12807 18.1918 8.39311 17.9609 8.52383C17.6561 8.6964 17.6173 8.76333 17.8191 8.76817C17.9719 8.77195 18.4359 8.40064 18.8502 7.94326C19.3522 7.38906 19.6425 7.17761 19.7207 7.30933C19.7852 7.41805 19.7666 7.64598 19.6793 7.81585C19.592 7.98573 19.5431 8.32724 19.5705 8.57477C19.6061 8.8962 19.4994 9.13199 19.1974 9.39979C18.9648 9.60603 18.6949 9.77476 18.5976 9.77476C18.3517 9.77476 18.3767 10.0291 18.6454 10.2615C18.9751 10.5466 19.585 10.3251 20.2698 9.67145C20.7189 9.24284 20.9061 9.15036 21.0014 9.3101C21.0718 9.42818 21.0593 9.54994 20.9737 9.58068C20.888 9.61142 20.8605 9.70845 20.9126 9.7963C20.9647 9.88414 20.9356 10.0465 20.8479 10.157C20.7603 10.2676 20.637 10.6453 20.5741 10.9963C20.5111 11.3473 20.3427 11.6838 20.1999 11.7439C20.0197 11.8198 20.1116 11.8834 20.5 11.9517L21.0597 12.0501L20.2642 12.2748C19.8266 12.3985 19.5567 12.5302 19.6644 12.5676C19.9287 12.6594 19.9119 13.0223 19.6321 13.2643C19.347 13.5108 19.607 14.441 19.961 14.441C20.4095 14.441 21.3851 13.9184 21.7427 13.4865C21.9994 13.1767 22.1558 13.1 22.276 13.2253C22.3962 13.3505 22.3495 13.4731 22.1167 13.643C21.9028 13.7991 21.811 14.0122 21.8549 14.25C21.8926 14.4543 21.8555 14.5734 21.7711 14.519C21.6877 14.4653 21.6195 14.5383 21.6195 14.6812C21.6195 14.8241 21.5089 15.0722 21.3738 15.2326C20.6096 16.1395 20.3081 16.6409 20.4425 16.781C20.6279 16.9741 22.2007 15.8267 22.126 15.5529C22.0967 15.4455 22.1272 15.4141 22.1932 15.4832C22.2595 15.5523 22.4876 15.49 22.7002 15.3449C22.9128 15.1998 23.1323 15.1286 23.1881 15.1867C23.2439 15.2449 23.1924 15.355 23.0738 15.4314C22.9551 15.5078 22.9062 15.6515 22.965 15.7507C23.1791 16.1116 22.3226 17.4185 21.7121 17.6627C21.5565 17.7249 21.3917 17.9254 21.3458 18.1082C21.2999 18.2911 21.1808 18.443 21.0811 18.4458C20.9814 18.4483 21.0207 18.5243 21.1685 18.6142C21.4979 18.8144 22.2988 18.4826 22.1486 18.208C22.0933 18.1069 22.1072 18.08 22.1795 18.1483C22.2518 18.2166 22.5468 18.085 22.8351 17.8559C23.3957 17.4103 23.7282 17.5529 23.2617 18.0389C23.0818 18.2263 23.0467 18.3531 23.1633 18.3936C23.2632 18.4283 23.3083 18.6022 23.2637 18.7801C23.219 18.958 23.1187 19.0625 23.0407 19.0123C22.9628 18.9621 22.899 19.0824 22.899 19.2797C22.899 19.5 22.7738 19.6726 22.5746 19.7268C22.3403 19.7907 22.2774 19.9042 22.3479 20.1359C22.4017 20.3122 22.3589 20.5654 22.2529 20.6985C22.1003 20.8901 22.1059 20.94 22.2796 20.9384C22.4004 20.9371 22.8455 20.5248 23.2689 20.0218C24.1474 18.978 24.5812 18.8018 24.2895 19.6073C24.1538 19.9817 24.1549 20.2358 24.2937 20.6193C24.5245 21.2566 24.4249 21.5483 23.9325 21.6771C23.6762 21.7441 23.5803 21.8597 23.642 22.0273C23.7061 22.2013 23.6601 22.2479 23.4909 22.1802C23.3347 22.1178 23.2099 22.2066 23.1424 22.4283C23.0846 22.6183 22.9701 22.7737 22.888 22.7737C22.806 22.7737 22.7389 22.8799 22.7389 23.0098C22.7389 23.1396 22.6489 23.2837 22.539 23.3299C22.4097 23.3843 22.4294 23.4186 22.5948 23.4271C22.7354 23.4344 23.1852 23.0865 23.5944 22.6541C24.3306 21.8759 24.3383 21.8726 24.3383 22.3274C24.3383 22.5801 24.1983 23.0729 24.0272 23.4223C23.8406 23.8034 23.7547 24.2114 23.8125 24.4417C23.9037 24.805 23.8758 24.82 23.295 24.7218C22.727 24.6258 22.7006 24.6384 22.9423 24.8902C23.2611 25.2224 24.1553 25.2485 24.3436 24.9311C24.4191 24.8039 24.5265 24.7474 24.5824 24.8057C24.7195 24.9486 24.3918 25.5842 23.8789 26.1703C23.5941 26.4956 23.5231 26.6748 23.6585 26.7258C23.7685 26.7672 23.8585 26.8716 23.8585 26.9577C23.8585 27.0438 23.6817 26.9936 23.4656 26.8461C23.0866 26.5873 22.7389 26.6333 22.7389 26.9422C22.7389 27.1855 23.8521 27.3298 24.2546 27.1387C24.459 27.0417 24.6656 27.0033 24.7138 27.0535C24.8613 27.2072 24.3427 27.8998 24.0129 27.9897C23.8421 28.0362 23.632 28.2503 23.546 28.4654C23.3062 29.065 22.9715 29.4398 22.6757 29.4398C22.4573 29.4398 22.4395 29.5014 22.579 29.7731C22.7386 30.0839 22.7006 30.1064 22.0134 30.1064C21.5717 30.1064 21.1805 30.2065 21.0367 30.3563C20.9048 30.4938 20.586 30.6063 20.3284 30.6063C19.7921 30.6063 19.7406 30.7251 20.1399 31.0409C20.3927 31.2409 20.3733 31.2631 19.94 31.2702C19.5705 31.2765 19.5154 31.3152 19.7001 31.4396C19.8321 31.5284 19.8737 31.6023 19.7927 31.6037C19.7116 31.6049 19.5183 31.4864 19.3629 31.3399C19.2076 31.1935 19.004 31.1229 18.9105 31.1831C18.645 31.3541 18.7086 31.5393 19.1004 31.7361C19.453 31.9134 19.4514 31.9172 19.017 31.9283C18.6935 31.9365 18.5245 31.827 18.3915 31.5229C18.1725 31.0221 17.9408 30.9793 17.9408 31.4396C17.9408 31.7023 17.8342 31.7729 17.4373 31.7729H16.9337C16.4922 31.9163 16.8077 31.8752 16.3086 31.8294ZM14.4758 31.3011C14.4133 31.052 14.2937 31.0139 13.8242 31.0934C12.9521 31.2411 12.9593 31.6062 13.8343 31.6062C14.4515 31.6062 14.5417 31.5634 14.4758 31.3011H14.4758ZM11.3836 29.2534C11.3836 29.1618 11.3116 29.1331 11.2237 29.1898C11.1357 29.2464 11.0637 29.3678 11.0637 29.4594C11.0637 29.5511 11.1357 29.5797 11.2237 29.5231C11.3116 29.4664 11.3836 29.3451 11.3836 29.2534ZM12.772 28.3378C13.2862 28.1941 13.0639 27.8629 12.4211 27.815C12.0614 27.7881 11.8625 27.8473 11.861 27.9816C11.8592 28.1336 11.8211 28.1283 11.7201 27.9622C11.6169 27.7924 11.5056 27.7789 11.2827 27.9093C10.9654 28.0949 11.038 28.1556 11.7834 28.3275C12.2777 28.4414 12.3969 28.4427 12.772 28.3379V28.3378ZM14.3424 28.2732C14.3968 28.1815 14.365 28.1065 14.2719 28.1065C14.1787 28.1065 14.1025 28.1815 14.1025 28.2732C14.1025 28.3648 14.1342 28.4398 14.173 28.4398C14.2119 28.4398 14.288 28.3648 14.3424 28.2732ZM22.4592 27.1629C22.3492 27.1167 22.1693 27.1167 22.0593 27.1629C21.9494 27.2091 22.0393 27.2469 22.2592 27.2469C22.4792 27.2469 22.5691 27.2091 22.4592 27.1629ZM10.5944 26.1008C10.8127 25.9791 10.9038 25.982 10.9038 26.1106C10.9038 26.2109 10.985 26.2407 11.0843 26.1768C11.2082 26.0969 11.1851 26.0141 11.0103 25.9122C10.7218 25.744 9.94419 25.899 9.94419 26.1247C9.94419 26.3226 10.2145 26.3127 10.5944 26.1008V26.1008ZM22.899 25.6067C23.094 25.4754 23.0734 25.4447 22.7885 25.4426C22.5957 25.4414 22.3936 25.5151 22.3392 25.6067C22.2134 25.8189 22.5839 25.8189 22.899 25.6067ZM11.8169 21.6695C11.8498 21.5663 11.7118 21.4411 11.5102 21.3913C11.3086 21.3415 10.9818 21.2484 10.7838 21.1844C10.2702 21.0185 10.3276 21.3748 10.8638 21.6806C11.3522 21.9591 11.7257 21.9547 11.8169 21.6695ZM24.0185 20.8571C24.0185 20.7196 23.9194 20.6071 23.7982 20.6071C23.677 20.6071 23.4883 20.7196 23.3788 20.8571C23.2104 21.0685 23.2444 21.1071 23.5991 21.1071C23.8653 21.1071 24.0185 21.0158 24.0185 20.8571ZM13.0896 18.3502C13.0896 18.2043 12.9973 18.1299 12.8763 18.1783C12.754 18.2272 12.6631 18.1511 12.6631 17.9996C12.6631 17.7672 12.6107 17.7713 12.2233 18.034C11.8561 18.2829 11.8188 18.2873 11.9975 18.06C12.184 17.8228 12.1582 17.7738 11.7976 17.6795C11.5699 17.62 11.3836 17.4669 11.3836 17.3393C11.3836 17.0828 10.9738 17.0212 10.8341 17.2567C10.68 17.5166 11.2796 18.111 11.9434 18.3562C12.782 18.6661 13.0896 18.6645 13.0896 18.3499V18.3502ZM13.9426 14.191C13.9426 14.0535 13.8706 13.941 13.7826 13.941C13.6947 13.941 13.6227 14.0535 13.6227 14.191C13.6227 14.3285 13.6947 14.441 13.7826 14.441C13.8706 14.441 13.9426 14.3285 13.9426 14.191ZM13.9426 12.2745C13.9426 12.1828 13.8664 12.1078 13.7732 12.1078C13.68 12.1078 13.6483 12.1828 13.7027 12.2745C13.757 12.3662 13.8333 12.4412 13.872 12.4412C13.9109 12.4412 13.9426 12.3662 13.9426 12.2745ZM13.4628 11.8579C13.4628 11.7204 13.3985 11.6079 13.32 11.6079C13.2414 11.6079 13.1357 11.7204 13.0851 11.8579C13.029 12.0101 13.0848 12.1078 13.2279 12.1078C13.3571 12.1078 13.4628 11.9954 13.4628 11.8579ZM19.2205 10.7746C19.4272 10.6354 19.423 10.6127 19.1899 10.6105C19.0412 10.6093 18.875 10.683 18.8206 10.7746C18.6955 10.9855 18.9073 10.9855 19.2205 10.7746H19.2205ZM15.9418 6.77495C15.9969 6.68202 15.8773 6.60943 15.6713 6.61086C15.3742 6.61275 15.3489 6.64499 15.5419 6.77495C15.8395 6.97535 15.8229 6.97535 15.9418 6.77495ZM13.245 5.69171C13.1943 5.55422 13.2226 5.44173 13.3079 5.44173C13.3931 5.44173 13.4628 5.55422 13.4628 5.69171C13.4628 5.8292 13.4345 5.94169 13.3999 5.94169C13.3653 5.94169 13.2956 5.8292 13.245 5.69171ZM15.2221 0.936873C15.2221 0.848091 15.33 0.775451 15.462 0.775451C15.5939 0.775451 15.7019 0.804923 15.7019 0.840948C15.7019 0.87697 15.5939 0.94961 15.462 1.00237C15.33 1.05513 15.2221 1.02566 15.2221 0.936873ZM16.3294 -0.0855875C16.2097 -0.62888 16.2393 -0.724424 16.5274 -0.724424C16.7378 -0.724424 16.8274 -0.630714 16.7932 -0.446593C16.7496 -0.212419 16.367 0.08535 16.3294 -0.0855875ZM16.253 -1.2389C16.1939 -1.33855 16.2257 -1.50354 16.3236 -1.60554C16.4543 -1.74172 16.5015 -1.69358 16.5015 -1.42437C16.5015 -1.02198 16.4185 -0.959981 16.253 -1.2389ZM16.2749 -2.36859C16.206 -2.48474 16.1929 -2.62479 16.2457 -2.6798C16.3888 -2.82894 16.5449 -2.60958 16.4676 -2.36791C16.4134 -2.19857 16.3757 -2.1987 16.2749 -2.36861L16.2749 -2.36859ZM16.3543 -3.82139C16.3619 -4.01553 16.3998 -4.05502 16.4509 -3.92208C16.4971 -3.80177 16.4914 -3.65804 16.4382 -3.60266C16.3851 -3.54728 16.3473 -3.64571 16.3542 -3.82139H16.3543Z" fill="#548627"/>
<path d="M16.2693 34.5871C16.2681 33.7393 16.2249 32.7771 16.1728 32.4489L16.1556 31.8414C16.6903 31.7831 16.6282 31.783 17.3067 31.7391L17.2617 33.0702C17.2918 33.4972 17.2677 34.0043 17.3098 34.4342C17.3423 34.7658 17.3668 35.1521 17.3927 35.3416C17.4984 36.1143 17.5743 36.1287 17.1628 36.1287H16.2709L16.2691 34.5872L16.2693 34.5871Z" fill="#6C3A0F"/>
</g>
<defs>
<clipPath id="clip0_340_8424">
<rect width="36" height="36" fill="white"/>
</clipPath>
</defs>
</svg>
